<svg width="28" height="28" viewBox="0 0 28 28" fill="none" xmlns="http://www.w3.org/2000/svg">
<g clip-path="url(#clip0_60_15)">
<path d="M0 5.25C0 3.31953 1.54996 1.75 3.45635 1.75H24.1944C26.1008 1.75 27.6508 3.31953 27.6508 5.25V15.3344C26.7327 14.5031 25.523 14 24.1944 14H3.45635C2.12782 14 0.918093 14.5031 0 15.3344V5.25ZM3.45635 15.75H24.1944C26.1008 15.75 27.6508 17.3195 27.6508 19.25V22.75C27.6508 24.6805 26.1008 26.25 24.1944 26.25H3.45635C1.54996 26.25 0 24.6805 0 22.75V19.25C0 17.3195 1.54996 15.75 3.45635 15.75ZM17.2817 22.75C17.7401 22.75 18.1797 22.5656 18.5037 22.2374C18.8278 21.9092 19.0099 21.4641 19.0099 21C19.0099 20.5359 18.8278 20.0908 18.5037 19.7626C18.1797 19.4344 17.7401 19.25 17.2817 19.25C16.8234 19.25 16.3838 19.4344 16.0597 19.7626C15.7356 20.0908 15.5536 20.5359 15.5536 21C15.5536 21.4641 15.7356 21.9092 16.0597 22.2374C16.3838 22.5656 16.8234 22.75 17.2817 22.75ZM24.1944 21C24.1944 20.5359 24.0124 20.0908 23.6883 19.7626C23.3642 19.4344 22.9246 19.25 22.4663 19.25C22.0079 19.25 21.5684 19.4344 21.2443 19.7626C20.9202 20.0908 20.7381 20.5359 20.7381 21C20.7381 21.4641 20.9202 21.9092 21.2443 22.2374C21.5684 22.5656 22.0079 22.75 22.4663 22.75C22.9246 22.75 23.3642 22.5656 23.6883 22.2374C24.0124 21.9092 24.1944 21.4641 24.1944 21Z" fill="black"/>
</g>
<defs>
<clipPath id="clip0_60_15">
<rect width="27.6508" height="28" fill="white"/>
</clipPath>
</defs>
</svg>
