<svg width="26" height="29" viewBox="0 0 26 29" fill="none" xmlns="http://www.w3.org/2000/svg">
<g clip-path="url(#clip0_36_19)">
<path d="M7.84643 1.41621L7.42857 2.19824H1.85714C0.829911 2.19824 0 2.98027 0 3.94824C0 4.91621 0.829911 5.69824 1.85714 5.69824H24.1429C25.1701 5.69824 26 4.91621 26 3.94824C26 2.98027 25.1701 2.19824 24.1429 2.19824H18.5714L18.1536 1.41621C17.8402 0.820117 17.196 0.448242 16.4937 0.448242H9.50625C8.80402 0.448242 8.15982 0.820117 7.84643 1.41621ZM24.1429 7.44824H1.85714L3.0875 25.9873C3.18036 27.3709 4.39911 28.4482 5.86741 28.4482H20.1326C21.6009 28.4482 22.8196 27.3709 22.9125 25.9873L24.1429 7.44824Z" fill="black"/>
</g>
<defs>
<clipPath id="clip0_36_19">
<rect width="26" height="28" fill="white" transform="translate(0 0.448242)"/>
</clipPath>
</defs>
</svg>
