<svg width="27" height="19" viewBox="0 0 27 19" fill="none" xmlns="http://www.w3.org/2000/svg">
<path d="M14.4653 19V13.5714H18.3227L13.501 8.14286L8.67919 13.5714H12.5366V19H7.71484V18.9548C7.55283 18.9638 7.39853 19 7.23266 19C5.31444 19 3.47478 18.2851 2.1184 17.0125C0.76201 15.7399 0 14.014 0 12.2143C0 8.73276 2.80627 5.89543 6.40717 5.50638C6.72288 3.95796 7.60383 2.56114 8.8985 1.55619C10.1932 0.551234 11.8206 0.000955454 13.501 0C15.1815 0.000882439 16.8093 0.551096 18.1043 1.55603C19.3992 2.56096 20.2806 3.95781 20.5967 5.50638C24.1976 5.89543 27 8.73276 27 12.2143C27 14.014 26.238 15.7399 24.8816 17.0125C23.5252 18.2851 21.6856 19 19.7673 19C19.6053 19 19.4491 18.9638 19.2852 18.9548V19H14.4653Z" fill="#006089"/>
</svg>
